{"asset":{"version":"2.0","generator":"Blockbench 5.0.7 glTF exporter"},"scenes":[{"nodes":[0,1,2,3,4,5,6,7,8,9,10,11],"name":"blockbench_export"}],"scene":0,"nodes":[{"translation":[0,1.375,0],"name":"Chest","mesh":0},{"rotation":[0.2798290140309921,0,0,0.9600498543859287],"translation":[0,1.53125,-0.1625],"name":"Brests","mesh":1},{"translation":[0.15625,0.59375,0],"name":"Left Thigh","mesh":2},{"translation":[0.15625,0.21875,0],"name":"Left Shin","mesh":3},{"rotation":[0,0,-0.08715574274765817,0.9961946980917455],"translation":[-0.375,1.4375,0],"name":"Right Upper Arm","mesh":4},{"rotation":[0,0,0.08715574274765817,0.9961946980917455],"translation":[0.4375,1,0],"name":"Left Lower Arm","mesh":5},{"rotation":[0,0,0.08715574274765817,0.9961946980917455],"translation":[0.375,1.4375,0],"name":"Left Upper Arm","mesh":6},{"rotation":[0,0,-0.08715574274765817,0.9961946980917455],"translation":[-0.4375,1.0625,0],"name":"Right Lower Arm","mesh":7},{"translation":[-0.15625,0.59375,0],"name":"Right Thigh","mesh":8},{"translation":[-0.15625,0.21875,0],"name":"Right Shin","mesh":9},{"translation":[0,1.84375,0],"name":"Head","mesh":10},{"translation":[0,0.9375,0.03125],"name":"Hip","mesh":11}],"bufferViews":[{"buffer":0,"byteOffset":0,"byteLength":1152,"target":34962,"byteStride":12},{"buffer":0,"byteOffset":1152,"byteLength":1152,"target":34962,"byteStride":12},{"buffer":0,"byteOffset":2304,"byteLength":768,"target":34962,"byteStride":8},{"buffer":0,"byteOffset":3072,"byteLength":264,"target":34963},{"buffer":0,"byteOffset":3336,"byteLength":1152,"target":34962,"byteStride":12},{"buffer":0,"byteOffset":4488,"byteLength":1152,"target":34962,"byteStride":12},{"buffer":0,"byteOffset":5640,"byteLength":768,"target":34962,"byteStride":8},{"buffer":0,"byteOffset":6408,"byteLength":264,"target":34963},{"buffer":0,"byteOffset":6672,"byteLength":1152,"target":34962,"byteStride":12},{"buffer":0,"byteOffset":7824,"byteLength":1152,"target":34962,"byteStride":12},{"buffer":0,"byteOffset":8976,"byteLength":768,"target":34962,"byteStride":8},{"buffer":0,"byteOffset":9744,"byteLength":264,"target":34963},{"buffer":0,"byteOffset":10008,"byteLength":1152,"target":34962,"byteStride":12},{"buffer":0,"byteOffset":11160,"byteLength":1152,"target":34962,"byteStride":12},{"buffer":0,"byteOffset":12312,"byteLength":768,"target":34962,"byteStride":8},{"buffer":0,"byteOffset":13080,"byteLength":264,"target":34963},{"buffer":0,"byteOffset":13344,"byteLength":1152,"target":34962,"byteStride":12},{"buffer":0,"byteOffset":14496,"byteLength":1152,"target":34962,"byteStride":12},{"buffer":0,"byteOffset":15648,"byteLength":768,"target":34962,"byteStride":8},{"buffer":0,"byteOffset":16416,"byteLength":264,"target":34963},{"buffer":0,"byteOffset":16680,"byteLength":1152,"target":34962,"byteStride":12},{"buffer":0,"byteOffset":17832,"byteLength":1152,"target":34962,"byteStride":12},{"buffer":0,"byteOffset":18984,"byteLength":768,"target":34962,"byteStride":8},{"buffer":0,"byteOffset":19752,"byteLength":264,"target":34963},{"buffer":0,"byteOffset":20016,"byteLength":1152,"target":34962,"byteStride":12},{"buffer":0,"byteOffset":21168,"byteLength":1152,"target":34962,"byteStride":12},{"buffer":0,"byteOffset":22320,"byteLength":768,"target":34962,"byteStride":8},{"buffer":0,"byteOffset":23088,"byteLength":264,"target":34963},{"buffer":0,"byteOffset":23352,"byteLength":1152,"target":34962,"byteStride":12},{"buffer":0,"byteOffset":24504,"byteLength":1152,"target":34962,"byteStride":12},{"buffer":0,"byteOffset":25656,"byteLength":768,"target":34962,"byteStride":8},{"buffer":0,"byteOffset":26424,"byteLength":264,"target":34963},{"buffer":0,"byteOffset":26688,"byteLength":1152,"target":34962,"byteStride":12},{"buffer":0,"byteOffset":27840,"byteLength":1152,"target":34962,"byteStride":12},{"buffer":0,"byteOffset":28992,"byteLength":768,"target":34962,"byteStride":8},{"buffer":0,"byteOffset":29760,"byteLength":264,"target":34963},{"buffer":0,"byteOffset":30024,"byteLength":1152,"target":34962,"byteStride":12},{"buffer":0,"byteOffset":31176,"byteLength":1152,"target":34962,"byteStride":12},{"buffer":0,"byteOffset":32328,"byteLength":768,"target":34962,"byteStride":8},{"buffer":0,"byteOffset":33096,"byteLength":264,"target":34963},{"buffer":0,"byteOffset":33360,"byteLength":1152,"target":34962,"byteStride":12},{"buffer":0,"byteOffset":34512,"byteLength":1152,"target":34962,"byteStride":12},{"buffer":0,"byteOffset":35664,"byteLength":768,"target":34962,"byteStride":8},{"buffer":0,"byteOffset":36432,"byteLength":264,"target":34963},{"buffer":0,"byteOffset":36696,"byteLength":1152,"target":34962,"byteStride":12},{"buffer":0,"byteOffset":37848,"byteLength":1152,"target":34962,"byteStride":12},{"buffer":0,"byteOffset":39000,"byteLength":768,"target":34962,"byteStride":8},{"buffer":0,"byteOffset":39768,"byteLength":264,"target":34963}],"buffers":[{"byteLength":40032,"uri":"data:application/octet-stream;base64,"}],"accessors":[{"bufferView":0,"componentType":5126,"count":96,"max":[0.25,0.40625,0.125],"min":[-0.25,-0.15625,-0.125],"type":"VEC3"},{"bufferView":1,"componentType":5126,"count":96,"max":[1,1,1],"min":[-1,-1,-1],"type":"VEC3"},{"bufferView":2,"componentType":5126,"count":96,"max":[0.822422206401825,0.5860187411308289],"min":[0.004124999977648258,0],"type":"VEC2"},{"bufferView":3,"componentType":5123,"count":132,"max":[95],"min":[0],"type":"SCALAR"},{"bufferView":4,"componentType":5126,"count":96,"max":[0.21875,0.25,0.09375],"min":[-0.21875,0,-0.09375],"type":"VEC3"},{"bufferView":5,"componentType":5126,"count":96,"max":[1,1,1],"min":[-1,-1,-1],"type":"VEC3"},{"bufferView":6,"componentType":5126,"count":96,"max":[0.5089062452316284,0.4375],"min":[0,0],"type":"VEC2"},{"bufferView":7,"componentType":5123,"count":132,"max":[95],"min":[0],"type":"SCALAR"},{"bufferView":8,"componentType":5126,"count":96,"max":[0.125,0.3125,0.140625],"min":[-0.125,-0.0625,-0.140625],"type":"VEC3"},{"bufferView":9,"componentType":5126,"count":96,"max":[1,1,1],"min":[-1,-1,-1],"type":"VEC3"},{"bufferView":10,"componentType":5126,"count":96,"max":[0.046875,0.109375],"min":[0,0],"type":"VEC2"},{"bufferView":11,"componentType":5123,"count":132,"max":[95],"min":[0],"type":"SCALAR"},{"bufferView":12,"componentType":5126,"count":96,"max":[0.125,0.3125,0.140625],"min":[-0.125,-0.0625,-0.140625],"type":"VEC3"},{"bufferView":13,"componentType":5126,"count":96,"max":[1,1,1],"min":[-1,-1,-1],"type":"VEC3"},{"bufferView":14,"componentType":5126,"count":96,"max":[0.046875,0.109375],"min":[0,0],"type":"VEC2"},{"bufferView":15,"componentType":5123,"count":132,"max":[95],"min":[0],"type":"SCALAR"},{"bufferView":16,"componentType":5126,"count":96,"max":[0.09375,0.3125,0.09375],"min":[-0.09375,-0.0625,-0.09375],"type":"VEC3"},{"bufferView":17,"componentType":5126,"count":96,"max":[1,1,1],"min":[-1,-1,-1],"type":"VEC3"},{"bufferView":18,"componentType":5126,"count":96,"max":[0.09375,0.21875],"min":[0,0],"type":"VEC2"},{"bufferView":19,"componentType":5123,"count":132,"max":[95],"min":[0],"type":"SCALAR"},{"bufferView":20,"componentType":5126,"count":96,"max":[0.1046031266450882,0.3740506172180176,0.09375],"min":[-0.0828968733549118,-0.0009493749821558595,-0.09375],"type":"VEC3"},{"bufferView":21,"componentType":5126,"count":96,"max":[1,1,1],"min":[-1,-1,-1],"type":"VEC3"},{"bufferView":22,"componentType":5126,"count":96,"max":[0.09375,0.21875],"min":[0,0],"type":"VEC2"},{"bufferView":23,"componentType":5123,"count":132,"max":[95],"min":[0],"type":"SCALAR"},{"bufferView":24,"componentType":5126,"count":96,"max":[0.09375,0.3125,0.09375],"min":[-0.09375,-0.0625,-0.09375],"type":"VEC3"},{"bufferView":25,"componentType":5126,"count":96,"max":[1,1,1],"min":[-1,-1,-1],"type":"VEC3"},{"bufferView":26,"componentType":5126,"count":96,"max":[0.9583956003189087,0.8125],"min":[0,0],"type":"VEC2"},{"bufferView":27,"componentType":5123,"count":132,"max":[95],"min":[0],"type":"SCALAR"},{"bufferView":28,"componentType":5126,"count":96,"max":[0.09375,0.3125,0.09375],"min":[-0.09375,-0.0625,-0.09375],"type":"VEC3"},{"bufferView":29,"componentType":5126,"count":96,"max":[1,1,1],"min":[-1,-1,-1],"type":"VEC3"},{"bufferView":30,"componentType":5126,"count":96,"max":[0.9583956003189087,0.8125],"min":[0,0],"type":"VEC2"},{"bufferView":31,"componentType":5123,"count":132,"max":[95],"min":[0],"type":"SCALAR"},{"bufferView":32,"componentType":5126,"count":96,"max":[0.125,0.3125,0.140625],"min":[-0.125,-0.0625,-0.140625],"type":"VEC3"},{"bufferView":33,"componentType":5126,"count":96,"max":[1,1,1],"min":[-1,-1,-1],"type":"VEC3"},{"bufferView":34,"componentType":5126,"count":96,"max":[0.4375,0.59375],"min":[0,0],"type":"VEC2"},{"bufferView":35,"componentType":5123,"count":132,"max":[95],"min":[0],"type":"SCALAR"},{"bufferView":36,"componentType":5126,"count":96,"max":[0.125,0.3125,0.140625],"min":[-0.125,-0.0625,-0.140625],"type":"VEC3"},{"bufferView":37,"componentType":5126,"count":96,"max":[1,1,1],"min":[-1,-1,-1],"type":"VEC3"},{"bufferView":38,"componentType":5126,"count":96,"max":[0.4375,0.59375],"min":[0,0],"type":"VEC2"},{"bufferView":39,"componentType":5123,"count":132,"max":[95],"min":[0],"type":"SCALAR"},{"bufferView":40,"componentType":5126,"count":96,"max":[0.1875,0.3125,0.1875],"min":[-0.1875,-0.0625,-0.1875],"type":"VEC3"},{"bufferView":41,"componentType":5126,"count":96,"max":[1,1,1],"min":[-1,-1,-1],"type":"VEC3"},{"bufferView":42,"componentType":5126,"count":96,"max":[0.59375,0.65625],"min":[0,0],"type":"VEC2"},{"bufferView":43,"componentType":5123,"count":132,"max":[95],"min":[0],"type":"SCALAR"},{"bufferView":44,"componentType":5126,"count":96,"max":[0.296875,0.28125,0.16562500596046448],"min":[-0.296875,-0.03125,-0.16562500596046448],"type":"VEC3"},{"bufferView":45,"componentType":5126,"count":96,"max":[1,1,1],"min":[-1,-1,-1],"type":"VEC3"},{"bufferView":46,"componentType":5126,"count":96,"max":[0.6388593912124634,0.5625],"min":[0,0],"type":"VEC2"},{"bufferView":47,"componentType":5123,"count":132,"max":[95],"min":[0],"type":"SCALAR"}],"materials":[{"pbrMetallicRoughness":{"metallicFactor":0,"roughnessFactor":1,"baseColorTexture":{"index":0}},"alphaMode":"MASK","alphaCutoff":0.05,"doubleSided":true},{"pbrMetallicRoughness":{"metallicFactor":0,"roughnessFactor":1,"baseColorTexture":{"index":1}},"alphaMode":"MASK","alphaCutoff":0.05,"doubleSided":true},{"pbrMetallicRoughness":{"metallicFactor":0,"roughnessFactor":1,"baseColorTexture":{"index":2}},"alphaMode":"MASK","alphaCutoff":0.05,"doubleSided":true},{"pbrMetallicRoughness":{"metallicFactor":0,"roughnessFactor":1,"baseColorTexture":{"index":3}},"alphaMode":"MASK","alphaCutoff":0.05,"doubleSided":true},{"pbrMetallicRoughness":{"metallicFactor":0,"roughnessFactor":1,"baseColorTexture":{"index":4}},"alphaMode":"MASK","alphaCutoff":0.05,"doubleSided":true},{"pbrMetallicRoughness":{"metallicFactor":0,"roughnessFactor":1,"baseColorTexture":{"index":5}},"alphaMode":"MASK","alphaCutoff":0.05,"doubleSided":true},{"pbrMetallicRoughness":{"metallicFactor":0,"roughnessFactor":1,"baseColorTexture":{"index":6}},"alphaMode":"MASK","alphaCutoff":0.05,"doubleSided":true},{"pbrMetallicRoughness":{"metallicFactor":0,"roughnessFactor":1,"baseColorTexture":{"index":7}},"alphaMode":"MASK","alphaCutoff":0.05,"doubleSided":true}],"textures":[{"sampler":0,"source":0,"name":"Chest"},{"sampler":1,"source":1,"name":"Breasts"},{"sampler":2,"source":2,"name":"Thigh"},{"sampler":3,"source":3,"name":"Shin"},{"sampler":4,"source":4,"name":"Upper Arm"},{"sampler":5,"source":5,"name":"Lower Arm"},{"sampler":6,"source":6,"name":"texture"},{"sampler":7,"source":7,"name":"Hips"}],"samplers":[{"magFilter":9728,"minFilter":9728,"wrapS":33071,"wrapT":33071},{"magFilter":9728,"minFilter":9728,"wrapS":33071,"wrapT":33071},{"magFilter":9728,"minFilter":9728,"wrapS":33071,"wrapT":33071},{"magFilter":9728,"minFilter":9728,"wrapS":33071,"wrapT":33071},{"magFilter":9728,"minFilter":9728,"wrapS":33071,"wrapT":33071},{"magFilter":9728,"minFilter":9728,"wrapS":33071,"wrapT":33071},{"magFilter":9728,"minFilter":9728,"wrapS":33071,"wrapT":33071},{"magFilter":9728,"minFilter":9728,"wrapS":33071,"wrapT":33071}],"images":[{"mimeType":"image/png","uri":"data:image/png;base64,"},{"mimeType":"image/png","uri":"data:image/png;base64,"},{"mimeType":"image/png","uri":"data:image/png;base64,"},{"mimeType":"image/png","uri":"data:image/png;base64,"},{"mimeType":"image/png","uri":"data:image/png;base64,"},{"mimeType":"image/png","uri":"data:image/png;base64,"},{"mimeType":"image/png","uri":"data:image/png;base64,"},{"mimeType":"image/png","uri":"data:image/png;base64,"}],"meshes":[{"primitives":[{"mode":4,"attributes":{"POSITION":0,"NORMAL":1,"TEXCOORD_0":2},"indices":3,"material":0}]},{"primitives":[{"mode":4,"attributes":{"POSITION":4,"NORMAL":5,"TEXCOORD_0":6},"indices":7,"material":1}]},{"primitives":[{"mode":4,"attributes":{"POSITION":8,"NORMAL":9,"TEXCOORD_0":10},"indices":11,"material":2}]},{"primitives":[{"mode":4,"attributes":{"POSITION":12,"NORMAL":13,"TEXCOORD_0":14},"indices":15,"material":3}]},{"primitives":[{"mode":4,"attributes":{"POSITION":16,"NORMAL":17,"TEXCOORD_0":18},"indices":19,"material":4}]},{"primitives":[{"mode":4,"attributes":{"POSITION":20,"NORMAL":21,"TEXCOORD_0":22},"indices":23,"material":5}]},{"primitives":[{"mode":4,"attributes":{"POSITION":24,"NORMAL":25,"TEXCOORD_0":26},"indices":27,"material":4}]},{"primitives":[{"mode":4,"attributes":{"POSITION":28,"NORMAL":29,"TEXCOORD_0":30},"indices":31,"material":5}]},{"primitives":[{"mode":4,"attributes":{"POSITION":32,"NORMAL":33,"TEXCOORD_0":34},"indices":35,"material":2}]},{"primitives":[{"mode":4,"attributes":{"POSITION":36,"NORMAL":37,"TEXCOORD_0":38},"indices":39,"material":3}]},{"primitives":[{"mode":4,"attributes":{"POSITION":40,"NORMAL":41,"TEXCOORD_0":42},"indices":43,"material":6}]},{"primitives":[{"mode":4,"attributes":{"POSITION":44,"NORMAL":45,"TEXCOORD_0":46},"indices":47,"material":7}]}]}